<svg width="254" height="30" viewBox="0 0 254 30" fill="none" xmlns="http://www.w3.org/2000/svg">
<path d="M19.92 2.59999V19.28C19.92 22.4533 19.0267 24.9333 17.24 26.72C15.4534 28.5067 12.92 29.4 9.64003 29.4C7.29336 29.4 5.3867 28.9733 3.92003 28.12C2.45336 27.2667 1.44003 26.0667 0.88003 24.52C0.32003 22.9733 0.213363 21.2 0.56003 19.2L5.92003 18.24C5.60003 20.5867 5.7467 22.28 6.36003 23.32C6.97336 24.36 8.1067 24.88 9.76003 24.88C11.4934 24.88 12.6934 24.3467 13.36 23.28C14.0534 22.2133 14.4 20.6267 14.4 18.52V2.59999H19.92Z" fill="#141414"/>
<path d="M34.75 8.59999C36.7767 8.59999 38.55 9.01332 40.07 9.83999C41.6167 10.6667 42.8167 11.8533 43.67 13.4C44.55 14.9467 44.99 16.8133 44.99 19C44.99 21.16 44.55 23.0267 43.67 24.6C42.8167 26.1467 41.6167 27.3333 40.07 28.16C38.55 28.9867 36.7767 29.4 34.75 29.4C32.75 29.4 30.9767 28.9867 29.43 28.16C27.8834 27.3333 26.67 26.1467 25.79 24.6C24.9367 23.0267 24.51 21.16 24.51 19C24.51 16.8133 24.9367 14.9467 25.79 13.4C26.67 11.8533 27.8834 10.6667 29.43 9.83999C30.9767 9.01332 32.75 8.59999 34.75 8.59999ZM34.75 12.68C33.7367 12.68 32.87 12.92 32.15 13.4C31.4567 13.8533 30.9234 14.5467 30.55 15.48C30.1767 16.4133 29.99 17.5867 29.99 19C29.99 20.4133 30.1767 21.5867 30.55 22.52C30.9234 23.4533 31.4567 24.16 32.15 24.64C32.87 25.0933 33.7367 25.32 34.75 25.32C35.7367 25.32 36.5767 25.0933 37.27 24.64C37.99 24.16 38.5367 23.4533 38.91 22.52C39.2834 21.5867 39.47 20.4133 39.47 19C39.47 17.5867 39.2834 16.4133 38.91 15.48C38.5367 14.5467 37.99 13.8533 37.27 13.4C36.5767 12.92 35.7367 12.68 34.75 12.68Z" fill="#141414"/>
<path d="M60.8582 16.24C60.8582 15.0933 60.5248 14.2 59.8582 13.56C59.2182 12.92 58.3648 12.6 57.2982 12.6C56.3115 12.6 55.4448 12.8533 54.6982 13.36C53.9515 13.8667 53.4048 14.7067 53.0582 15.88L48.3782 14.44C48.8315 12.68 49.8182 11.2667 51.3382 10.2C52.8848 9.13332 54.9515 8.59999 57.5382 8.59999C59.2982 8.59999 60.8315 8.87999 62.1382 9.43999C63.4448 9.97332 64.4582 10.7867 65.1782 11.88C65.9248 12.9733 66.2982 14.3467 66.2982 16V24.12C66.2982 25.1333 66.7782 25.64 67.7382 25.64C68.1915 25.64 68.6182 25.5733 69.0182 25.44L68.6982 28.84C68.0048 29.1867 67.1382 29.36 66.0982 29.36C65.1648 29.36 64.3248 29.2 63.5782 28.88C62.8315 28.56 62.2448 28.08 61.8182 27.44C61.3915 26.7733 61.1782 25.9467 61.1782 24.96V24.8L62.1382 24.64C61.9782 25.6533 61.5382 26.52 60.8182 27.24C60.0982 27.9333 59.2182 28.4667 58.1782 28.84C57.1648 29.2133 56.1115 29.4 55.0182 29.4C53.6582 29.4 52.4848 29.2 51.4982 28.8C50.5115 28.3733 49.7515 27.76 49.2182 26.96C48.6848 26.16 48.4182 25.1733 48.4182 24C48.4182 22.5067 48.8982 21.2933 49.8582 20.36C50.8182 19.4 52.1915 18.7467 53.9782 18.4L61.4982 16.88L61.4582 20.28L56.6582 21.24C55.7515 21.4267 55.0582 21.68 54.5782 22C54.1248 22.2933 53.8982 22.7867 53.8982 23.48C53.8982 24.1467 54.1382 24.6533 54.6182 25C55.1248 25.3467 55.7248 25.52 56.4182 25.52C56.9782 25.52 57.5248 25.4533 58.0582 25.32C58.5915 25.1867 59.0715 24.9733 59.4982 24.68C59.9248 24.3867 60.2582 23.9867 60.4982 23.48C60.7382 22.9733 60.8582 22.36 60.8582 21.64V16.24ZM65.2582 0.27999C65.2048 1.61332 64.9648 2.73332 64.5382 3.63999C64.1382 4.51999 63.5915 5.18666 62.8982 5.63999C62.2048 6.06666 61.4048 6.27999 60.4982 6.27999C59.7515 6.27999 59.1115 6.15999 58.5782 5.91999C58.0448 5.65332 57.5782 5.37332 57.1782 5.07999C56.8048 4.75999 56.4315 4.47999 56.0582 4.23999C55.7115 3.97332 55.3382 3.83999 54.9382 3.83999C54.4315 3.83999 54.0448 4.05332 53.7782 4.47999C53.5382 4.87999 53.3648 5.47999 53.2582 6.27999H49.8982C50.0048 4.27999 50.4848 2.78666 51.3382 1.79999C52.2182 0.786657 53.3915 0.27999 54.8582 0.27999C55.5782 0.27999 56.1915 0.413324 56.6982 0.679992C57.2315 0.91999 57.6848 1.19999 58.0582 1.51999C58.4315 1.83999 58.7782 2.11999 59.0982 2.35999C59.4448 2.59999 59.8182 2.71999 60.2182 2.71999C60.7515 2.71999 61.1382 2.51999 61.3782 2.11999C61.6448 1.69332 61.8315 1.07999 61.9382 0.27999H65.2582Z" fill="#141414"/>
<path d="M81.4688 8.59999C83.4954 8.59999 85.2688 9.01332 86.7888 9.83999C88.3354 10.6667 89.5354 11.8533 90.3888 13.4C91.2688 14.9467 91.7088 16.8133 91.7088 19C91.7088 21.16 91.2688 23.0267 90.3888 24.6C89.5354 26.1467 88.3354 27.3333 86.7888 28.16C85.2688 28.9867 83.4954 29.4 81.4688 29.4C79.4688 29.4 77.6954 28.9867 76.1488 28.16C74.6021 27.3333 73.3888 26.1467 72.5088 24.6C71.6554 23.0267 71.2288 21.16 71.2288 19C71.2288 16.8133 71.6554 14.9467 72.5088 13.4C73.3888 11.8533 74.6021 10.6667 76.1488 9.83999C77.6954 9.01332 79.4688 8.59999 81.4688 8.59999ZM81.4688 12.68C80.4554 12.68 79.5888 12.92 78.8688 13.4C78.1754 13.8533 77.6421 14.5467 77.2688 15.48C76.8955 16.4133 76.7088 17.5867 76.7088 19C76.7088 20.4133 76.8955 21.5867 77.2688 22.52C77.6421 23.4533 78.1754 24.16 78.8688 24.64C79.5888 25.0933 80.4554 25.32 81.4688 25.32C82.4554 25.32 83.2954 25.0933 83.9888 24.64C84.7088 24.16 85.2554 23.4533 85.6288 22.52C86.0021 21.5867 86.1888 20.4133 86.1888 19C86.1888 17.5867 86.0021 16.4133 85.6288 15.48C85.2554 14.5467 84.7088 13.8533 83.9888 13.4C83.2954 12.92 82.4554 12.68 81.4688 12.68Z" fill="#141414"/>
<path d="M120.721 2.59999C123.707 2.59999 126.054 3.31999 127.761 4.75999C129.467 6.19999 130.321 8.13332 130.321 10.56C130.321 13.1467 129.467 15.1333 127.761 16.52C126.054 17.88 123.721 18.56 120.761 18.56L120.201 18.88H114.521V29H109.081V2.59999H120.721ZM120.081 14.68C121.627 14.68 122.774 14.3733 123.521 13.76C124.294 13.12 124.681 12.1467 124.681 10.84C124.681 9.53332 124.294 8.57332 123.521 7.95999C122.774 7.31999 121.627 6.99999 120.081 6.99999H114.521V14.68H120.081ZM123.321 15.84L131.881 29H125.681L118.601 17.44L123.321 15.84Z" fill="#141414"/>
<path d="M138.351 6.11999C137.204 6.11999 136.351 5.87999 135.791 5.39999C135.231 4.89332 134.951 4.15999 134.951 3.19999C134.951 2.21332 135.231 1.47999 135.791 0.99999C136.351 0.493324 137.204 0.23999 138.351 0.23999C139.498 0.23999 140.351 0.493324 140.911 0.99999C141.471 1.47999 141.751 2.21332 141.751 3.19999C141.751 4.15999 141.471 4.89332 140.911 5.39999C140.351 5.87999 139.498 6.11999 138.351 6.11999ZM141.071 8.99999V29H135.591V8.99999H141.071Z" fill="#141414"/>
<path d="M155.96 8.59999C157.747 8.59999 159.253 8.86666 160.48 9.39999C161.733 9.90666 162.733 10.6133 163.48 11.52C164.253 12.4 164.8 13.3867 165.12 14.48L160 16.32C159.733 15.12 159.28 14.2133 158.64 13.6C158 12.9867 157.133 12.68 156.04 12.68C155.027 12.68 154.16 12.92 153.44 13.4C152.72 13.8533 152.173 14.56 151.8 15.52C151.427 16.4533 151.24 17.6267 151.24 19.04C151.24 20.4533 151.427 21.6267 151.8 22.56C152.2 23.4933 152.76 24.1867 153.48 24.64C154.227 25.0933 155.093 25.32 156.08 25.32C156.88 25.32 157.56 25.1867 158.12 24.92C158.68 24.6267 159.133 24.2133 159.48 23.68C159.853 23.1467 160.107 22.5067 160.24 21.76L165.2 23.36C164.907 24.56 164.36 25.6133 163.56 26.52C162.76 27.4267 161.733 28.1333 160.48 28.64C159.227 29.1467 157.773 29.4 156.12 29.4C154.067 29.4 152.253 28.9867 150.68 28.16C149.107 27.3333 147.893 26.1467 147.04 24.6C146.187 23.0533 145.76 21.1867 145.76 19C145.76 16.8133 146.187 14.9467 147.04 13.4C147.893 11.8533 149.093 10.6667 150.64 9.83999C152.187 9.01332 153.96 8.59999 155.96 8.59999Z" fill="#141414"/>
<path d="M180.858 16.24C180.858 15.0933 180.525 14.2 179.858 13.56C179.218 12.92 178.365 12.6 177.298 12.6C176.311 12.6 175.445 12.8533 174.698 13.36C173.951 13.8667 173.405 14.7067 173.058 15.88L168.378 14.44C168.831 12.68 169.818 11.2667 171.338 10.2C172.885 9.13332 174.951 8.59999 177.538 8.59999C179.298 8.59999 180.831 8.87999 182.138 9.43999C183.445 9.97332 184.458 10.7867 185.178 11.88C185.925 12.9733 186.298 14.3467 186.298 16V24.12C186.298 25.1333 186.778 25.64 187.738 25.64C188.191 25.64 188.618 25.5733 189.018 25.44L188.698 28.84C188.005 29.1867 187.138 29.36 186.098 29.36C185.165 29.36 184.325 29.2 183.578 28.88C182.831 28.56 182.245 28.08 181.818 27.44C181.391 26.7733 181.178 25.9467 181.178 24.96V24.8L182.138 24.64C181.978 25.6533 181.538 26.52 180.818 27.24C180.098 27.9333 179.218 28.4667 178.178 28.84C177.165 29.2133 176.111 29.4 175.018 29.4C173.658 29.4 172.485 29.2 171.498 28.8C170.511 28.3733 169.751 27.76 169.218 26.96C168.685 26.16 168.418 25.1733 168.418 24C168.418 22.5067 168.898 21.2933 169.858 20.36C170.818 19.4 172.191 18.7467 173.978 18.4L181.498 16.88L181.458 20.28L176.658 21.24C175.751 21.4267 175.058 21.68 174.578 22C174.125 22.2933 173.898 22.7867 173.898 23.48C173.898 24.1467 174.138 24.6533 174.618 25C175.125 25.3467 175.725 25.52 176.418 25.52C176.978 25.52 177.525 25.4533 178.058 25.32C178.591 25.1867 179.071 24.9733 179.498 24.68C179.925 24.3867 180.258 23.9867 180.498 23.48C180.738 22.9733 180.858 22.36 180.858 21.64V16.24Z" fill="#141414"/>
<path d="M192.427 29V8.99999H197.187L197.547 12.92C198.08 11.5333 198.854 10.4667 199.867 9.71999C200.907 8.97332 202.2 8.59999 203.747 8.59999C204.2 8.59999 204.614 8.63999 204.987 8.71999C205.36 8.79999 205.667 8.90666 205.907 9.03999L205.267 13.64C205 13.5333 204.667 13.4533 204.267 13.4C203.894 13.3467 203.4 13.32 202.787 13.32C201.987 13.32 201.214 13.52 200.467 13.92C199.72 14.2933 199.107 14.88 198.627 15.68C198.147 16.4533 197.907 17.44 197.907 18.64V29H192.427Z" fill="#141414"/>
<path d="M216.471 29.4C214.818 29.4 213.338 28.9867 212.031 28.16C210.751 27.3333 209.738 26.1467 208.991 24.6C208.271 23.0533 207.911 21.2 207.911 19.04C207.911 16.8267 208.298 14.9467 209.071 13.4C209.845 11.8267 210.885 10.64 212.191 9.83999C213.525 9.01332 215.018 8.59999 216.671 8.59999C218.431 8.59999 219.885 9.10666 221.031 10.12C222.178 11.1333 222.925 12.44 223.271 14.04L222.751 14.68V0.23999H228.231V29H223.311L222.951 22.92L223.631 23.24C223.445 24.4933 223.018 25.5867 222.351 26.52C221.685 27.4267 220.845 28.1333 219.831 28.64C218.818 29.1467 217.698 29.4 216.471 29.4ZM218.071 25.2C219.031 25.2 219.858 24.96 220.551 24.48C221.245 23.9733 221.778 23.24 222.151 22.28C222.551 21.32 222.751 20.1733 222.751 18.84C222.751 17.56 222.565 16.48 222.191 15.6C221.818 14.6933 221.285 14 220.591 13.52C219.898 13.04 219.085 12.8 218.151 12.8C216.658 12.8 215.485 13.3333 214.631 14.4C213.805 15.44 213.391 16.9733 213.391 19C213.391 21.0267 213.805 22.5733 214.631 23.64C215.458 24.68 216.605 25.2 218.071 25.2Z" fill="#141414"/>
<path d="M243.109 8.59999C245.136 8.59999 246.909 9.01332 248.429 9.83999C249.976 10.6667 251.176 11.8533 252.029 13.4C252.909 14.9467 253.349 16.8133 253.349 19C253.349 21.16 252.909 23.0267 252.029 24.6C251.176 26.1467 249.976 27.3333 248.429 28.16C246.909 28.9867 245.136 29.4 243.109 29.4C241.109 29.4 239.336 28.9867 237.789 28.16C236.243 27.3333 235.029 26.1467 234.149 24.6C233.296 23.0267 232.869 21.16 232.869 19C232.869 16.8133 233.296 14.9467 234.149 13.4C235.029 11.8533 236.243 10.6667 237.789 9.83999C239.336 9.01332 241.109 8.59999 243.109 8.59999ZM243.109 12.68C242.096 12.68 241.229 12.92 240.509 13.4C239.816 13.8533 239.283 14.5467 238.909 15.48C238.536 16.4133 238.349 17.5867 238.349 19C238.349 20.4133 238.536 21.5867 238.909 22.52C239.283 23.4533 239.816 24.16 240.509 24.64C241.229 25.0933 242.096 25.32 243.109 25.32C244.096 25.32 244.936 25.0933 245.629 24.64C246.349 24.16 246.896 23.4533 247.269 22.52C247.643 21.5867 247.829 20.4133 247.829 19C247.829 17.5867 247.643 16.4133 247.269 15.48C246.896 14.5467 246.349 13.8533 245.629 13.4C244.936 12.92 244.096 12.68 243.109 12.68Z" fill="#141414"/>
</svg>
